<?xml version="1.0" encoding="utf-8"?>
<!-- Generator: Adobe Illustrator 22.0.1, SVG Export Plug-In . SVG Version: 6.00 Build 0)  -->
<svg version="1.1" id="Layer_1" xmlns="http://www.w3.org/2000/svg" xmlns:xlink="http://www.w3.org/1999/xlink" x="0px" y="0px"
	 viewBox="0 0 612 792" style="enable-background:new 0 0 612 792;" xml:space="preserve">
<g>
	<path d="M488.5,377.9c9.1,12.2,11.4,23.8,6.9,34.7c-3.9,9.1-11.6,16.1-23.1,20.8c-10.9,4.3-20.5,4.9-28.7,1.8
		c-9.1-3.7-12.6-11.2-10.5-22.4c1.2-6,4-10.1,8.3-12.3c4.8-2.4,10.7-2.2,17.9,0.7c-0.6,1.5-3.7,2.7-9.4,3.6
		c-4.8,0.7-6.5,3.4-5.2,8.1c6.6,9.9,13.5,14.1,20.8,12.8c6.3-1,11-5.5,14.3-13.4c3.4-7.9,3.7-15.2,0.7-21.9
		c-3.6-7.8-10.7-11.9-21.3-12.3c-6.4-0.3-12.9,2.2-19.5,7.4c0-0.1-5.6,5.1-16.8,15.7c-6.7,6.4-13,10.5-18.8,12.3
		c-7.9,2.4-16.6,1.3-26.2-3.4c1.9,1.8,6.3,5.3,13,10.5c6.3,4.8,11,8.9,14.3,12.3c11,10.9,16.4,22.6,16.1,35.2
		c0,10.2-3.8,18.6-11.4,25.3c-6.7,5.7-14.9,9.1-24.4,10.3c-9.4,0.9-17.2-0.7-23.3-4.7c-6.6-4.5-9.1-10.9-7.6-19.3
		c1-6,3.2-10,6.5-12.1c3.7-2.4,10.3-3.2,19.7-2.5c-0.9,0.6-2.4,1.5-4.5,2.7c-2.1,1.2-3.6,2.1-4.5,2.7c-3.3,2.4-5.2,5.5-5.6,9.2
		c2.4,6.3,6,10.5,11,12.8c4.5,2.1,9.2,2.1,14.1,0c4.9-1.9,8.9-5.5,11.9-10.7c3.1-5.7,4.4-12.2,3.8-19.5
		c-1.3-14.5-11.5-25.5-30.5-33.1c-2.7-1-10.5-3.7-23.3-8.1c-9-2.8-15.3-5.5-19-8.1c7.5,6.3,11.1,15.5,11,27.5
		c-0.2,7.3-2.2,19.3-6.3,35.8s-6.1,28.8-6.3,36.7c-0.3,12.8,3.1,23,10.3,30.5c-11.6-1.9-18.4-8.4-20.4-19.3
		c-1.2-7.2-0.3-19.3,2.7-36.3c3.6-19.1,5.3-32.3,5.2-39.6c-0.3-13.9-4.8-23.8-13.4-29.8c-9,5.7-13.7,14.9-14.3,27.5
		c-0.3,7.2,1.2,19.6,4.5,37.2c3.1,16.9,4.3,29.2,3.4,36.9c-1.2,12.2-6.8,21-16.8,26.2c6-6.7,8.5-16.1,7.6-28.2
		c-0.4-6.4-2.8-18.1-6.9-35.2c-4-15.7-6-27.7-6-36.1c0-12.8,3.7-23.2,11.2-31.1c-1.6,0.6-6.9,2-15.9,4.3c-9.4,2.4-17,4.7-22.8,6.9
		c-20,7.5-31.3,17.2-33.8,29.3c-2.8,13.7-0.2,24.5,8.1,32.2c8.5,7.9,18.4,7.8,29.6-0.2c1.6-14.3-2.2-21.1-11.6-20.4
		c2.2-3.4,6.4-4.4,12.5-2.9c5.4,1.2,9,3.1,10.7,5.8c3.9,9.3,2.1,17.6-5.4,25.1c-7.2,7.3-16.1,10.5-26.6,9.6
		c-9.9-0.7-17.6-5.1-23.3-13c-5.1-7.2-7.5-16-7.4-26.6c0.1-10.4,2.9-20.2,8.3-29.1c6-9.7,14-16.6,24-20.8c4.3-0.3,8.7-1.3,13-3.1
		c-4.5,0.4-8.8,1.5-13,3.1c-10.7,0.9-22.9-5-36.5-17.7c-14.3-13.3-24.9-20.1-31.8-20.4c-11.9-0.6-20.1,2.9-24.4,10.5
		c-3.9,6.4-4.3,13.8-1.1,22.2c3.3,8.2,8.2,13.1,14.8,14.6c7.8,1.6,15.2-2.5,22.4-12.3c0.6-4.2-0.6-6.9-3.6-8.1
		c-2.1-0.9-5.8-1.1-11-0.7c15.7-1.8,24.3,0.6,25.8,7.2c1.3,5.8-2.2,12-10.7,18.6c-9,6.9-18,9.8-27.1,8.7c-11-1.5-18.6-9.1-22.6-22.8
		c-5.5-18.5-1.6-32.6,11.9-42.3c12.8-9.4,28.2-10.8,46.1-4.3c6.3,2.2,11.6,6.9,16.1,14.1c4.2,6.6,9.5,10.6,15.9,12.1
		c13.7,3.3,25.5,2.2,35.2-3.1c8.2-4.5,12.9-10.2,14.1-17.2c1-5.4-3.6-16.3-13.9-32.7c-11-17.8-17.1-30.1-18.1-36.9
		c-3.6-27.8,3.1-49,20.2-63.8c14.9-12.8,33.7-18.1,56.4-15.9c22.5,2.2,39.9,11.1,52.2,26.6c14,17.6,16.6,39.2,7.8,64.7
		c-0.7,2.1-6.4,10.7-17,25.8c-8.8,12.5-12.8,22.3-12.1,29.3c2.2,21.2,17.8,29,46.6,23.3c-1.6,0.3,11.4-7.8,39.2-24.2
		C457.5,361.4,473.4,363.6,488.5,377.9z M270.6,375c-10.9,5.4-20.4,5.2-28.4-0.4c-4.8-3.4-10.9-11.2-18.4-23.3
		c-7.6-12.4-13.9-20.5-18.8-24.4c-8.5-6.7-18.6-8.1-30.2-4c0.3-7.8,5.5-11.6,15.7-11.4c8.4,0,15.7,1.9,22.2,5.6
		c4.6,2.5,13.4,13.7,26.2,33.6C249.6,367.3,260.2,375.5,270.6,375z M363.6,375c8.5-1.6,16.9-7,25.3-16.1c2.7-3.1,6.1-7.5,10.3-13
		c5.4-7.3,8.7-11.6,9.9-13c7.9-9.9,15.3-16,22.2-18.6c9.1-3.4,19.5-1.6,31.1,5.6c-11.8-3.7-22.1-2.2-30.9,4.7
		c-5.4,4-12,12.3-19.9,24.9c-7.9,12.4-14.3,20.4-19.3,24C384,379.4,374.5,380,363.6,375z"/>
</g>
</svg>
